<?xml version="1.0" encoding="UTF-8" standalone="no"?>
<svg xmlns="http://www.w3.org/2000/svg" width="264" height="162" viewBox="0 0 264 162">
    <path d="M239.167 151.362l11.467 9.995 12.866-9.608v-151.249h-263v151.749l9 6.705v-116.454h39v112.6l4.393-3.731 7.607 5.33v-114.199h155v110.849l9.751 8.031 13.916-10.018z" fill="#fff"/>
    <path d="M1 1v150.998l8 5.96v-115.958h40v112.019l3.274-2.779.589-.499.633.44 6.504 4.557v-113.738h156v111.099l9.257 7.661 13.295-9.569.644-.465.598.521 10.864 9.47 12.342-9.218v-150.499h-262zm-1-1h264v152l-13.391 10-11.473-10-13.891 10-10.245-8.4v-110.6h-154v114.66l-8.078-5.66-4.922 4.18v-113.18h-38v116.95l-10-7.45v-152.5zM61 43h154v110.6l-2.145-1.6-12.555 10-13.809-10-14.229 10-12.972-10-12.973 10-13.811-10-12.136 10-13.391-10-14.229 10-12.972-10-12.974 10-5.804-4.34v-114.66zm-51 116.95v-116.95h38v113.18l-7.551 5.82-13.811-10-13.891 10-2.747-2.05z" fill="#e5e5e5"/>
    <g fill="#e5e5e5">
        <path d="M253 24c0-7.732-6.268-14-14-14s-14 6.268-14 14 6.268 14 14 14 14-6.268 14-14zM226 137v-77h25v77h-25zm-195-132h-26v6h26v-6zM43 5h-6v6h6zM53 5h-6v6h6zM63 5h-6v6h6zM226 47v-5h25v5h-25zM253 24c0-7.732-6.268-14-14-14s-14 6.268-14 14 6.268 14 14 14 14-6.268 14-14z"/>
    </g>
    <g fill="none">
        <path d="M100 47.65l-16.968 16.968-16.968-16.968h33.936zm6.363 13.433l-7.956 7.956-7.956-7.956h15.911zm0 22.624l-7.956 7.956-7.956-7.956h15.911zm19.796 2.828l-5.726 5.726-5.726-5.726h11.452zm1.414 22.624l-5.726 5.726-5.726-5.726h11.452zm-62.923-60.095l16.968 16.968-16.968 16.968v-33.936zm24.566 13.254l7.956 7.956-7.956 7.956v-15.911zm0 22.624l7.956 7.956-7.956 7.956v-15.911zm24.147 2.937l5.726 5.726-5.726 5.726v-11.452zm1.414 22.624l5.726 5.726-5.726 5.726v-11.452z" fill="#0f74fb"/>
        <path d="M115.159 68.465l-3.917 3.917-3.917-3.917h7.833zm-8.753.919l3.917 3.917-3.917 3.917v-7.833zm.269 38.673l-3.917 3.917-3.917-3.917h7.833zm-8.753.919l3.917 3.917-3.917 3.917v-7.833zm-12.457-33.441l-3.917 3.917-3.917-3.917h7.833zm-8.753.919l3.917 3.917-3.917 3.917v-7.833zm68.848 30.896l-3.917 3.917-3.917-3.917h7.833zm-8.753.919l3.917 3.917-3.917 3.917v-7.833z" fill="#fff"/>
    </g>
</svg>
