<svg xmlns="http://www.w3.org/2000/svg" width="264" height="162" viewBox="0 0 264 162">
    <defs>
        <clipPath id="jagged-edge">
            <path d="M0 0v152l12 10 12-10 12 10 12-10 12 10 12-10 12 10 12-10 12 10 12-10 12 10 12-10 12 10 12-10 12 10 12-10 12 10 12-10 12 10 12-10 12 10 12-10V0z"/>
        </clipPath>
    </defs>
    <g clip-path="url(#jagged-edge)" fill="#eaecf0">
        <path id="background" d="M0 0h264v162H0" fill="#fff"/>
        <path id="logo" d="M11 22c0-8 6-14 14-14s14 6 14 14-6 14-14 14-14-6-14-14m27 23v-5H13v5h25"/>
        <path id="sidebar" d="M38 163V58H13v106h25"/>
        <path id="personal-tools" d="M233 5h26v6h-26zm-24 0h22v6h-22zm-24 0h22v6h-22zm-23 0h13v6h-13zm15 0h6v6h-6zm-23 0h6v6h-6z"/>
        <g id="search">
            <path id="input" d="M258 16v4h-92v-4h92m1-1h-94v6h94z"/>
            <path id="icon" d="M168 17h2v2h-2z"/>
        </g>
        <path id="article" d="M252 162V29H48v133z"/>
        <path id="border" d="M0 0v162h264V0zm1 1h262v150.53l-11 9.17-12-10-12 10-12-10-12 10-12-10-12 10-12-10-12 10-12-10-12 10-12-10-12 10-12-10-12 10-12-10-12 10-12-10-12 10-12-10-12 10-11-9z"/>
    </g>
    <g fill="none">
        <path d="M211.4 34.15l16.97 16.97 16.97-16.97zm-6.36 13.43l7.95 7.96 7.96-7.96h-15.91zm0 22.63l7.95 7.95 7.96-7.95h-15.91zm-19.8 2.82l5.73 5.73 5.72-5.73zm-1.41 22.63l5.72 5.72 5.73-5.72zm62.92-60.1l-16.97 16.97 16.97 16.97zm-24.57 13.26l-7.95 7.95 7.95 7.96V48.82zm0 22.62l-7.95 7.96 7.95 7.95v-15.9zm-24.14 2.94l-5.73 5.72 5.73 5.73zM196.62 97l-5.72 5.73 5.72 5.72z" fill="#36c"/>
        <path d="M196.24 54.97l3.92 3.91 3.92-3.91h-7.84zm8.75.91l-3.91 3.92 3.91 3.92v-7.83zm-.27 38.68l3.92 3.91 3.92-3.91h-7.83zm8.76.92l-3.92 3.91 3.92 3.92v-7.83zm12.45-33.45l3.92 3.92 3.92-3.92h-7.83zm8.76.92l-3.92 3.92 3.92 3.92v-7.84zm-68.85 30.9l3.92 3.92 3.91-3.92h-7.83zm8.75.92l-3.91 3.92 3.91 3.91v-7.83z" fill="#fff"/>
    </g>
</svg>
